<?xml version="1.0" standalone="no"?>
<!DOCTYPE svg PUBLIC "-//W3C//DTD SVG 20010904//EN"
 "http://www.w3.org/TR/2001/REC-SVG-20010904/DTD/svg10.dtd">
<svg version="1.0" xmlns="http://www.w3.org/2000/svg"
 width="225.000000pt" height="225.000000pt" viewBox="0 0 225.000000 225.000000"
 preserveAspectRatio="xMidYMid meet">
<metadata>
Created by potrace 1.14, written by Peter Selinger 2001-2017
</metadata>
<g transform="translate(0.000000,225.000000) scale(0.100000,-0.100000)"
fill="#000000" stroke="none">
<path d="M1053 2231 c-24 -11 -52 -35 -65 -55 -22 -34 -26 -36 -78 -36 -54 0
-130 -26 -144 -49 -5 -7 -57 -11 -150 -11 -97 0 -158 -5 -193 -15 -65 -19
-139 -85 -169 -150 l-24 -50 0 -825 0 -825 24 -50 c25 -56 86 -115 143 -142
35 -17 88 -18 728 -18 640 0 693 1 728 18 57 27 118 86 143 142 l24 50 0 825
0 825 -24 50 c-30 65 -104 131 -169 150 -35 10 -96 15 -193 15 -93 0 -145 4
-150 11 -14 23 -90 49 -144 49 -52 0 -56 2 -78 36 -26 39 -89 74 -137 74 -16
0 -49 -9 -72 -19z m111 -110 c25 -27 17 -72 -15 -90 -24 -13 -29 -13 -53 2
-17 12 -26 26 -26 44 0 55 59 83 94 44z m-189 -110 c20 -63 117 -109 192 -90
43 11 98 57 108 90 5 16 16 19 59 19 28 0 57 -5 64 -12 8 -8 12 -46 12 -103 0
-57 -4 -95 -12 -103 -17 -17 -529 -17 -546 0 -16 16 -16 190 0 206 7 7 36 12
64 12 43 0 54 -3 59 -19z m-26 -583 c15 -25 13 -29 -55 -132 -46 -71 -77 -108
-93 -112 -25 -7 -126 36 -161 68 -24 23 -26 55 -3 80 21 23 44 23 92 -2 l39
-19 27 42 c63 97 75 108 108 105 22 -2 36 -11 46 -30z m663 -95 c20 -18 23
-45 8 -74 -10 -18 -24 -19 -270 -19 -246 0 -260 1 -270 19 -14 28 -12 52 7 73
15 16 36 18 261 18 214 0 248 -2 264 -17z m-672 -283 c11 -11 20 -26 20 -34 0
-8 -31 -62 -70 -120 -82 -125 -86 -126 -195 -68 -62 33 -70 41 -73 69 -3 25 2
35 23 49 25 17 28 16 71 -4 24 -12 46 -22 49 -22 2 0 23 28 46 63 62 93 89
107 129 67z m668 -106 c14 -10 22 -26 22 -44 0 -56 -18 -60 -280 -60 -262 0
-280 4 -280 60 0 56 18 60 280 60 197 0 239 -3 258 -16z m-674 -285 c14 -11
26 -28 26 -37 0 -26 -128 -211 -154 -223 -20 -9 -35 -5 -97 27 -84 45 -97 61
-83 101 12 34 57 42 103 19 16 -9 34 -16 38 -16 5 0 23 25 41 54 30 50 74 96
92 96 4 0 19 -9 34 -21z m686 -118 c14 -28 12 -52 -7 -73 -15 -16 -36 -18
-261 -18 -214 0 -248 2 -264 17 -20 18 -23 45 -8 74 10 18 24 19 270 19 246 0
260 -1 270 -19z"/>
</g>
</svg>
