<?xml version="1.0" standalone="no"?>
<!DOCTYPE svg PUBLIC "-//W3C//DTD SVG 20010904//EN"
 "http://www.w3.org/TR/2001/REC-SVG-20010904/DTD/svg10.dtd">
<svg version="1.0" xmlns="http://www.w3.org/2000/svg"
 width="512.000000pt" height="512.000000pt" viewBox="0 0 512.000000 512.000000"
 preserveAspectRatio="xMidYMid meet">
<metadata>
Created by potrace 1.14, written by Peter Selinger 2001-2017
</metadata>
<g transform="translate(0.000000,512.000000) scale(0.100000,-0.100000)"
fill="#000000" stroke="none">
<path d="M0 2560 l0 -2560 2560 0 2560 0 0 2560 0 2560 -2560 0 -2560 0 0
-2560z m4293 2125 c190 -40 350 -193 387 -370 7 -34 10 -131 8 -253 l-3 -197
-37 -78 c-62 -129 -154 -208 -318 -271 l-55 -21 -1645 -3 c-986 -1 -1669 1
-1705 7 -213 33 -378 178 -429 377 -22 84 -22 356 -1 439 25 95 64 165 129
231 67 67 175 126 261 142 30 6 706 10 1695 11 1392 1 1655 -2 1713 -14z m233
-1427 c71 -37 110 -77 142 -145 27 -57 27 -61 27 -258 0 -197 0 -201 -27 -251
-32 -61 -93 -118 -156 -146 -39 -17 -75 -21 -217 -25 -267 -8 -349 10 -435 97
-72 73 -83 118 -82 335 1 135 6 193 17 225 30 85 94 146 186 180 49 18 76 20
274 17 216 -2 221 -3 271 -29z"/>
</g>
</svg>
